<svg width="24" height="24" fill="none" xmlns="http://www.w3.org/2000/svg"><path fill-rule="evenodd" clip-rule="evenodd" d="M2 10.224C2 3.587 2 0 12.482 0 22.944 0 22.963 3.538 23 10.187v.037c0 4.843 0 8.036-3.958 9.435V24l-4.618-2.619-1.65-.933h-.292C2 20.448 2 16.897 2 10.224zm18.691 5.56c.183-.573.293-1.29.367-2.26.019-.493.028-1.026.038-1.595.009-.506.018-1.04.035-1.597 0-1.615 0-3.014-.147-4.162-.11-1.076-.366-1.793-.77-2.331a4.682 4.682 0 0 0-.769-.682c-.367-.251-.843-.43-1.393-.61a15.95 15.95 0 0 0-2.272-.43c-.953-.108-2.052-.144-3.262-.144-1.246 0-2.345.036-3.261.144-.88.107-1.65.25-2.273.43-.55.18-1.026.395-1.392.61-.33.18-.587.43-.77.682-.367.538-.623 1.255-.77 2.331-.146 1.148-.146 2.547-.146 4.162 0 1.614 0 3.013.146 4.161.11 1.076.367 1.794.77 2.332.22.251.476.466.77.682.366.25.843.43 1.392.61.66.179 1.393.322 2.273.43.952.108 2.052.144 3.261.144H13.325l.44.25 1.649.933 1.759 1.005v-2.404l1.246-.43c.66-.251 1.173-.538 1.54-.933.329-.359.549-.79.732-1.327zm-10.115-8.07c.513 0 .953-.431.953-.934 0-.502-.44-.932-.953-.932-.513 0-.953.43-.953.932 0 .503.44.933.953.933zm0 .896c-.513 0-.953.43-.953.933v4.376c0 .503.44.933.953.933.513 0 .953-.43.953-.933V9.543a.936.936 0 0 0-.953-.933zm4.837-1.83c0 .503-.44.933-.952.933-.514 0-.953-.43-.953-.933 0-.502.44-.932.953-.932.513 0 .952.43.952.932zm-.952 1.83c-.514 0-.953.43-.953.933v4.376c0 .503.44.933.953.933.513 0 .952-.43.952-.933V9.543c0-.503-.44-.933-.952-.933z" fill="#FF4338"/></svg>