<svg width="260" height="260" viewBox="0 0 260 260" fill="none" xmlns="http://www.w3.org/2000/svg">
<rect width="260" height="260" fill="#FF4338"/>
<path fill-rule="evenodd" clip-rule="evenodd" d="M216.71 97.2465C217.191 98.8713 217.771 100.832 217.986 102.974C218.562 107.18 218.702 112.979 218.846 118.945C218.892 120.86 218.938 122.793 219 124.696C219 132.273 218.746 140.608 217.986 146.165C217.732 148.691 217.225 150.964 216.465 152.732C215.958 154.5 214.943 156.015 213.929 157.278C213.169 158.289 212.154 159.299 210.887 160.057C209.619 160.814 207.844 161.572 205.816 162.33L199.224 164.603V171.423V179L180.208 168.139L177.673 166.624L174.63 166.876C173.204 167.005 171.778 167.069 170.318 167.133C168.923 167.195 167.497 167.258 166.01 167.381C158.15 167.634 139.895 167.887 129.754 167.887C119.612 167.887 100.85 167.887 92.9901 167.381C85.3839 166.876 78.5383 166.371 72.7068 165.613C64.8471 164.603 59.0156 163.845 54.7054 162.582C52.17 161.825 50.1417 161.067 48.6204 160.057C47.0992 159.046 46.085 158.289 45.0709 157.026C44.0567 155.763 43.296 154.247 42.5354 152.479C42.4584 152.211 42.3756 151.931 42.2896 151.64C41.8091 150.015 41.2292 148.055 41.0142 145.912C40 140.356 40 131.768 40 124.443C40 116.866 40.2536 108.531 41.0142 102.974C41.2677 100.448 41.7748 98.1753 42.5354 96.4072C43.0425 94.6392 44.0567 93.1238 45.0709 91.8609C46.085 90.598 47.0992 89.5876 48.6204 88.8299C50.3952 87.8196 52.17 87.0619 54.7054 86.3041C59.2691 85.0413 64.8471 84.2836 72.7068 83.2733C78.5383 82.5155 85.3839 82.0103 92.9901 81.5052C100.85 81.2526 119.358 81 129.754 81C139.642 81 157.897 81 166.01 81.5052C173.363 82.0103 180.208 82.5155 186.293 83.2733C194.153 84.2836 199.984 85.0413 204.295 86.3041C206.83 87.0619 208.858 87.8196 210.38 88.8299C211.901 89.8402 212.915 90.598 213.929 91.8609C214.943 93.1238 215.704 94.6392 216.465 96.4072C216.542 96.6756 216.624 96.9557 216.71 97.2465ZM69.6643 105.753C69.6643 102.974 67.3824 100.954 64.847 100.954C62.3116 100.954 60.0298 103.227 60.0298 105.753C60.0298 108.531 62.0581 110.552 64.847 110.552C67.636 110.552 69.6643 108.278 69.6643 105.753ZM64.847 147.428C67.636 147.428 69.6643 145.155 69.6643 142.629V119.897C69.6643 117.119 67.3824 115.098 64.847 115.098C62.0581 115.098 60.0298 117.371 60.0298 119.897V142.629C60.0298 145.407 62.3116 147.428 64.847 147.428ZM92.99 139.345C92.483 139.598 91.9759 139.851 91.2153 139.851C89.4405 139.851 88.1729 138.335 88.1729 136.567V122.928H95.272C97.3003 122.928 98.8215 121.412 98.8215 119.392C98.8215 117.371 97.3003 115.856 95.272 115.856H88.1729V110.046C88.1729 108.026 86.6515 106.51 84.6232 106.51C83.3555 106.51 82.3414 107.015 81.5808 108.026L74.9887 117.371C74.4816 117.876 74.2281 118.634 74.2281 119.392C74.2281 121.412 75.7493 122.928 77.7776 122.928H78.2847V137.325C78.2847 139.851 79.2989 142.376 81.3272 144.397C83.102 146.418 85.6374 147.428 88.4263 147.428C91.4688 147.428 94.2578 146.67 96.7932 145.155C97.8074 144.65 98.568 143.387 98.568 142.124C98.568 140.103 97.0467 138.588 95.0184 138.588C94.2578 138.588 93.4972 138.84 92.9901 139.345L92.99 139.345ZM124.936 146.923H129.754C131.528 146.923 132.796 145.66 133.05 143.387C133.05 142.124 132.289 141.113 131.275 140.608C130.514 140.356 130.007 139.598 130.007 138.84V127.727C130.007 122.928 128.739 119.392 126.204 117.371C124.176 115.856 121.133 115.098 117.077 115.098C112.766 115.098 109.977 115.856 108.456 116.613C107.188 117.119 106.428 117.876 105.667 118.634L105.667 118.634C104.907 119.392 104.653 120.402 104.653 121.665C104.653 124.191 106.681 126.211 109.217 126.211C110.231 126.211 111.245 125.959 112.006 125.201C112.766 124.696 113.273 123.938 113.527 123.18C113.654 122.928 113.717 122.738 113.78 122.549C113.844 122.36 113.907 122.17 114.034 121.918C114.541 120.907 115.809 120.149 117.077 120.149C119.105 120.149 120.626 121.665 120.626 123.686V126.716C120.373 126.716 118.091 127.474 115.302 128.485C112.513 129.495 109.217 130.758 107.695 131.515C104.907 133.031 103.132 136.062 103.132 139.093C103.132 143.892 106.935 147.68 111.752 147.68C115.048 147.68 118.091 146.417 120.373 144.144C120.626 144.902 121.387 145.66 122.147 146.165C122.908 146.67 123.922 146.923 124.936 146.923ZM141.924 147.428C144.712 147.428 146.741 145.155 146.741 142.629V105.753C146.741 102.974 144.459 100.954 141.924 100.954C139.135 100.954 137.106 103.227 137.106 105.753V142.629C137.106 145.407 139.388 147.428 141.924 147.428ZM175.137 145.66C176.152 146.67 177.419 147.428 178.941 147.428C181.476 147.428 183.758 145.407 183.758 143.134C183.758 142.124 183.504 140.861 182.744 140.103L175.898 131.768L182.744 123.433C183.504 122.423 183.758 121.412 183.758 120.402C183.758 117.624 181.476 115.603 178.941 115.603C177.419 115.603 176.152 116.108 175.137 117.371L163.475 131.515V106.005C163.475 103.227 161.193 101.206 158.657 101.206C155.868 101.206 153.84 103.479 153.84 106.005V142.881C153.84 145.66 156.122 147.68 158.657 147.68C161.446 147.68 163.475 145.407 163.475 142.881V131.515L175.137 145.66ZM198.717 105.753C198.717 102.974 196.435 100.954 193.899 100.954C191.364 100.954 189.336 103.227 189.082 105.753C189.082 108.531 191.11 110.552 193.899 110.552C196.688 110.552 198.717 108.278 198.717 105.753ZM193.899 147.428C196.688 147.428 198.717 145.155 198.717 142.629V119.897C198.717 117.119 196.435 115.098 193.899 115.098C191.11 115.098 189.082 117.371 189.082 119.897V142.629C189.082 145.407 191.364 147.428 193.899 147.428ZM112.006 137.578C112.006 136.568 112.766 135.305 113.78 134.547C114.73 133.601 116.79 132.655 119.754 131.295C119.956 131.202 120.162 131.108 120.373 131.011V138.841C119.358 139.599 118.091 140.104 116.823 140.356C116.316 140.609 115.809 140.609 115.555 140.609C114.541 140.609 113.527 140.356 113.02 139.851C112.259 139.346 112.006 138.588 112.006 137.578Z" fill="white"/>
</svg>
