<svg fill="none" height="94" width="312" xmlns="http://www.w3.org/2000/svg"><path d="m19.928 3.772c15.744 0 23.616 5.822 23.616 17.466 0 3.827-1.011 6.997-3.034 9.512-1.968 2.515-4.455 4.537-7.462 6.068l17.138 25.502h-15.662l-13.202-21.976h-5.494v21.976h-13.94v-58.548zm-.574 10.988h-3.526v14.678h3.526c3.335 0 5.822-.601 7.462-1.804 1.695-1.257 2.542-3.225 2.542-5.904 0-2.35-.793-4.1-2.378-5.248s-4.127-1.722-7.626-1.722zm55.757 1.722c6.342 0 11.371 1.75 15.088 5.248 3.718 3.444 5.576 8.528 5.576 15.252v6.396h-28.454c.11 2.952 1.066 5.303 2.87 7.052 1.804 1.75 4.374 2.624 7.708 2.624 2.898 0 5.522-.273 7.872-.82 2.351-.547 4.784-1.421 7.298-2.624v10.25a25.697 25.697 0 0 1 -7.052 2.46c-2.514.547-5.603.82-9.266.82-4.537 0-8.582-.82-12.136-2.46-3.498-1.64-6.259-4.155-8.282-7.544-1.968-3.39-2.952-7.735-2.952-13.038 0-7.981 1.996-13.913 5.986-17.794 3.991-3.881 9.239-5.822 15.744-5.822zm.246 9.594c-2.132 0-3.908.683-5.33 2.05-1.366 1.367-2.186 3.471-2.46 6.314h15.498c-.054-2.405-.738-4.4-2.05-5.986-1.257-1.585-3.143-2.378-5.658-2.378zm43.587-26.076v14.35c0 1.64-.055 3.253-.164 4.838a52.383 52.383 0 0 1 -.41 3.936h.574c1.148-1.859 2.706-3.417 4.674-4.674 1.968-1.312 4.537-1.968 7.708-1.968 4.865 0 8.828 1.968 11.89 5.904 3.116 3.936 4.674 9.703 4.674 17.302 0 7.708-1.586 13.557-4.756 17.548-3.116 3.936-7.189 5.904-12.218 5.904-3.226 0-5.74-.574-7.544-1.722s-3.28-2.405-4.428-3.772h-.902l-2.214 4.674h-10.742v-62.32zm7.626 27.388c-2.734 0-4.674.902-5.822 2.706-1.148 1.75-1.75 4.455-1.804 8.118v1.722c0 3.99.546 6.997 1.64 9.02 1.148 2.023 3.198 3.034 6.15 3.034 2.186 0 3.908-1.066 5.166-3.198 1.257-2.132 1.886-5.22 1.886-9.266 0-8.09-2.406-12.136-7.216-12.136zm174.029 24.764c1.367 0 2.652-.137 3.854-.41a32.423 32.423 0 0 0 3.772-1.066v10.168c-1.476.656-3.17 1.203-5.084 1.64-1.913.437-4.182.656-6.806.656-2.788 0-5.275-.437-7.462-1.312-2.132-.93-3.826-2.487-5.084-4.674-1.202-2.241-1.804-5.33-1.804-9.266v-20.254h-5.74v-5.74l6.888-4.428 3.772-9.512h8.856v9.348h11.972v10.332h-11.972v19.762c0 1.585.438 2.788 1.312 3.608.875.765 2.05 1.148 3.526 1.148zm-295.751 21.744c1.397 0 2.432.277 3.104.832.683.555 1.024 1.387 1.024 2.496 0 .79-.192 1.43-.576 1.92s-.859.87-1.424 1.136l2.928 5.04h-2.224l-2.448-4.544h-1.36v4.544h-1.984v-11.424zm-.096 1.68h-.88v3.584h.96c.725 0 1.259-.155 1.6-.464.341-.31.512-.773.512-1.392s-.181-1.061-.544-1.328c-.352-.267-.901-.4-1.648-.4zm15.934 9.744h-5.92v-11.424h5.92v1.68h-3.936v2.96h3.68v1.68h-3.68v3.408h3.936zm7.613 0h-1.984v-11.424h5.904v1.68h-3.92v3.408h3.664v1.68h-3.664zm9.268 0v-11.424h1.984v9.728h4.16v1.696zm17.235 0h-5.92v-11.424h5.92v1.68h-3.936v2.96h3.68v1.68h-3.68v3.408h3.936zm10.094-9.888c-.619 0-1.142.176-1.568.528-.427.352-.752.843-.976 1.472-.214.63-.32 1.36-.32 2.192 0 1.312.24 2.336.72 3.072.48.725 1.205 1.088 2.176 1.088.426 0 .842-.048 1.248-.144.405-.107.821-.24 1.248-.4v1.712a6.129 6.129 0 0 1 -1.28.4 7.369 7.369 0 0 1 -1.44.128c-1.056 0-1.936-.235-2.64-.704-.694-.48-1.216-1.157-1.568-2.032-.352-.885-.528-1.93-.528-3.136 0-1.141.186-2.15.56-3.024.373-.885.922-1.579 1.648-2.08.736-.512 1.632-.768 2.688-.768s2.037.24 2.944.72l-.656 1.632a7.101 7.101 0 0 0 -1.088-.464 3.576 3.576 0 0 0 -1.168-.192zm11.923 9.888h-1.984v-9.728h-2.864v-1.696h7.696v1.696h-2.847v9.728zm14.627-5.632c0-.427.112-.736.336-.928.224-.203.507-.304.848-.304.33 0 .608.096.832.288.234.192.352.507.352.944 0 .427-.117.736-.352.928a1.234 1.234 0 0 1 -.832.288c-.33 0-.614-.096-.848-.288-.224-.203-.336-.512-.336-.928zm18.177-5.792c1.397 0 2.432.277 3.104.832.683.555 1.024 1.387 1.024 2.496 0 .79-.192 1.43-.576 1.92s-.859.87-1.424 1.136l2.928 5.04h-2.224l-2.448-4.544h-1.36v4.544h-1.984v-11.424zm-.096 1.68h-.88v3.584h.96c.725 0 1.259-.155 1.6-.464.341-.31.512-.773.512-1.392s-.181-1.061-.544-1.328c-.352-.267-.901-.4-1.648-.4zm15.934 9.744h-5.92v-11.424h5.92v1.68h-3.936v2.96h3.68v1.68h-3.68v3.408h3.936zm10.093-9.888c-.619 0-1.141.176-1.568.528s-.752.843-.976 1.472c-.213.63-.32 1.36-.32 2.192 0 1.312.24 2.336.72 3.072.48.725 1.205 1.088 2.176 1.088.427 0 .843-.048 1.248-.144.405-.107.821-.24 1.248-.4v1.712a6.136 6.136 0 0 1 -1.28.4 7.375 7.375 0 0 1 -1.44.128c-1.056 0-1.936-.235-2.64-.704-.693-.48-1.216-1.157-1.568-2.032-.352-.885-.528-1.93-.528-3.136 0-1.141.187-2.15.56-3.024.373-.885.923-1.579 1.648-2.08.736-.512 1.632-.768 2.688-.768s2.037.24 2.944.72l-.656 1.632a7.088 7.088 0 0 0 -1.088-.464 3.576 3.576 0 0 0 -1.168-.192zm16.451 9.888h-1.984v-5.104h-4.32v5.104h-1.984v-11.424h1.984v4.624h4.32v-4.624h1.984zm12.378 0-.912-3.04h-3.664l-.912 3.04h-2.112l3.664-11.456h2.352l3.696 11.456zm-1.36-4.752-.88-3.088c-.054-.17-.112-.379-.176-.624l-.192-.736a8.294 8.294 0 0 1 -.144-.64c-.054.31-.134.661-.24 1.056-.096.395-.182.71-.256.944l-.88 3.088zm11.206-6.672c1.398 0 2.432.277 3.104.832.683.555 1.024 1.387 1.024 2.496 0 .79-.192 1.43-.576 1.92s-.858.87-1.424 1.136l2.928 5.04h-2.224l-2.448-4.544h-1.36v4.544h-1.984v-11.424zm-.096 1.68h-.88v3.584h.96c.726 0 1.259-.155 1.6-.464.342-.31.512-.773.512-1.392s-.181-1.061-.544-1.328c-.352-.267-.901-.4-1.648-.4zm14.302 3.472h3.952v5.808c-.576.203-1.168.357-1.776.464s-1.27.16-1.984.16c-1.611 0-2.838-.523-3.68-1.568-.843-1.045-1.264-2.485-1.264-4.32 0-1.184.208-2.213.624-3.088.426-.885 1.04-1.568 1.84-2.048.81-.48 1.802-.72 2.976-.72.586 0 1.146.064 1.68.192a7.03 7.03 0 0 1 1.472.512l-.656 1.632a5.846 5.846 0 0 0 -1.184-.464 4.816 4.816 0 0 0 -1.312-.176c-1.067 0-1.899.373-2.496 1.12-.587.736-.88 1.76-.88 3.072 0 .81.101 1.53.304 2.16.213.63.544 1.12.992 1.472.458.352 1.05.528 1.776.528.341 0 .64-.021.896-.064s.496-.09.72-.144v-2.832h-2zm15.728 6.272h-5.92v-11.424h5.92v1.68h-3.936v2.96h3.68v1.68h-3.68v3.408h3.936zm12.388-5.632c0-.427.112-.736.336-.928.224-.203.507-.304.848-.304.331 0 .608.096.832.288.235.192.352.507.352.944 0 .427-.117.736-.352.928a1.233 1.233 0 0 1 -.832.288c-.33 0-.613-.096-.848-.288-.224-.203-.336-.512-.336-.928zm18.178-5.792c1.397 0 2.432.277 3.104.832.682.555 1.024 1.387 1.024 2.496 0 .79-.192 1.43-.576 1.92s-.859.87-1.424 1.136l2.928 5.04h-2.224l-2.448-4.544h-1.36v4.544h-1.984v-11.424zm-.096 1.68h-.88v3.584h.96c.725 0 1.258-.155 1.6-.464.341-.31.512-.773.512-1.392s-.182-1.061-.544-1.328c-.352-.267-.902-.4-1.648-.4zm15.933 9.744h-5.92v-11.424h5.92v1.68h-3.936v2.96h3.68v1.68h-3.68v3.408h3.936zm11.773-3.184c0 1.013-.341 1.824-1.024 2.432-.682.608-1.616.912-2.8.912a8.422 8.422 0 0 1 -1.584-.144 5.102 5.102 0 0 1 -1.376-.464v-1.92c.448.224.934.416 1.456.576a5.8 5.8 0 0 0 1.568.224c.598 0 1.04-.139 1.328-.416.299-.277.448-.63.448-1.056 0-.459-.17-.827-.512-1.104-.33-.288-.864-.603-1.6-.944a8.37 8.37 0 0 1 -1.28-.736 3.589 3.589 0 0 1 -.944-1.056c-.234-.416-.352-.944-.352-1.584 0-.96.32-1.717.96-2.272.64-.565 1.499-.848 2.576-.848.555 0 1.078.064 1.568.192.502.128.987.299 1.456.512l-.608 1.664a7.335 7.335 0 0 0 -1.232-.464 4.184 4.184 0 0 0 -1.2-.176c-.501 0-.885.123-1.152.368-.266.245-.4.57-.4.976 0 .31.064.57.192.784.139.213.358.416.656.608.31.181.715.39 1.216.624.854.405 1.504.848 1.952 1.328.459.48.688 1.141.688 1.984zm9.15 3.184h-1.984v-9.728h-2.864v-1.696h7.696v1.696h-2.848zm13.327 0-.912-3.04h-3.664l-.912 3.04h-2.112l3.664-11.456h2.352l3.696 11.456zm-1.36-4.752-.88-3.088c-.053-.17-.112-.379-.176-.624l-.192-.736a8.294 8.294 0 0 1 -.144-.64c-.053.31-.133.661-.24 1.056-.096.395-.181.71-.256.944l-.88 3.088zm11.207-6.672c1.397 0 2.432.277 3.104.832.683.555 1.024 1.387 1.024 2.496 0 .79-.192 1.43-.576 1.92s-.859.87-1.424 1.136l2.928 5.04h-2.224l-2.448-4.544h-1.36v4.544h-1.984v-11.424zm-.096 1.68h-.88v3.584h.96c.725 0 1.259-.155 1.6-.464.341-.31.512-.773.512-1.392s-.181-1.061-.544-1.328c-.352-.267-.901-.4-1.648-.4zm13.774 9.744h-1.984v-9.728h-2.864v-1.696h7.696v1.696h-2.848zm-39.341-48.5c0 3.48-.677 6.85-1.917 9.994-1.354 3.256-3.271 6.288-5.865 8.758a26.752 26.752 0 0 1 -8.798 5.839c-3.158 1.347-6.542 1.909-10.038 1.909-3.497 0-6.88-.674-10.039-1.909-3.27-1.347-6.316-3.256-8.797-5.839l-19.062-18.752-10.376-10.33c-2.82-2.808-6.542-4.267-10.49-4.267a14.71 14.71 0 0 0 -10.376 4.266c-2.82 2.695-4.286 6.4-4.286 10.33a14.58 14.58 0 0 0 4.286 10.331c2.819 2.808 6.429 4.267 10.376 4.267a14.71 14.71 0 0 0 10.377-4.267l1.805-1.796 8.459 8.422-1.805 1.796a26.748 26.748 0 0 1 -8.797 5.839c-3.159 1.347-6.542 1.909-10.039 1.909a27.5 27.5 0 0 1 -10.038-1.909c-3.271-1.347-6.316-3.256-8.798-5.839a26.618 26.618 0 0 1 -5.865-8.758c-1.353-3.145-1.917-6.514-1.917-9.994s.677-6.85 1.917-9.994c1.354-3.256 3.271-6.288 5.865-8.758a26.754 26.754 0 0 1 8.798-5.84c3.158-1.347 6.542-1.908 10.038-1.908 3.497 0 6.88.674 10.039 1.909 3.27 1.347 6.316 3.256 8.797 5.839l25.152 24.928 4.173 4.154c2.82 2.808 6.429 4.267 10.377 4.267a14.71 14.71 0 0 0 10.377-4.267c2.819-2.807 4.286-6.4 4.286-10.33s-1.579-7.636-4.286-10.33c-2.707-2.808-6.316-4.267-10.264-4.267a14.71 14.71 0 0 0 -10.377 4.266l-2.143 2.134-8.459-8.422 2.143-2.133a26.743 26.743 0 0 1 8.798-5.84c3.158-1.347 6.541-1.908 10.038-1.908 3.496 0 6.88.674 10.038 1.909 3.271 1.347 6.316 3.256 8.798 5.839a26.618 26.618 0 0 1 5.865 8.758c1.353 3.144 2.03 6.513 2.03 9.994z" fill="#fff"/></svg>