<svg width="39" height="25" fill="none" xmlns="http://www.w3.org/2000/svg"><path fill-rule="evenodd" clip-rule="evenodd" d="M38.829 5.93c-.102-.658-.203-1.165-.406-1.672a5.814 5.814 0 0 0-.81-1.47c-.66-.76-1.572-1.318-2.84-1.673-.962-.304-2.179-.456-3.8-.659h-.001C29.755.304 28.336.203 26.815.101 25.193 0 21.544 0 19.567 0c-1.977 0-5.729.05-7.35.101-1.521.102-2.94.203-4.157.355-1.622.203-2.839.406-3.802.66-1.267.354-2.18.912-2.839 1.672-.355.405-.608.912-.81 1.47-.203.507-.305 1.014-.406 1.673C.05 7.097 0 8.668 0 10.442c0 1.724.05 3.346.203 4.512.101.659.203 1.166.405 1.672.203.558.507 1.065.811 1.47.66.76 1.572 1.319 2.839 1.673.963.304 2.18.457 3.802.66 1.216.151 2.585.253 4.156.354 1.623.101 5.323.101 7.35.101 1.978 0 5.627-.05 7.25-.1.297-.026.582-.038.86-.05.293-.014.578-.026.863-.052l6.539 3.802v-4.765c1.115-.355 1.875-.862 2.484-1.572.355-.405.608-.912.81-1.47.203-.507.305-1.014.406-1.673.152-1.165.203-2.737.203-4.511.05-1.825 0-3.396-.152-4.562zm-1.876 8.72c-.05.506-.152.912-.304 1.267-.152.355-.304.659-.507.912a2.16 2.16 0 0 1-.608.558c-.253.152-.608.304-1.014.456l-1.318.406v2.888l-3.75-2.128-.508-.304-.557.05c-.28.026-.558.039-.837.051a18.32 18.32 0 0 0-.836.05c-1.572.102-5.17.102-7.147.102-2.028 0-5.678-.05-7.25-.101-1.141-.04-2.222-.14-3.194-.23-.28-.026-.55-.052-.81-.074-1.52-.203-2.636-.355-3.548-.609-.456-.152-.862-.304-1.217-.506a2.665 2.665 0 0 1-.71-.609c-.202-.253-.354-.557-.506-.912a4.226 4.226 0 0 1-.304-1.267c-.152-1.116-.203-2.738-.203-4.208 0-1.47 0-3.143.203-4.207.05-.507.152-.912.304-1.267.152-.355.304-.66.507-.913.202-.253.405-.405.71-.608.303-.203.709-.355 1.216-.507.862-.253 1.977-.405 3.548-.608 1.166-.152 2.535-.254 4.005-.355 1.571-.101 5.22-.101 7.249-.101 1.977 0 5.575.05 7.147.1 1.47.052 2.839.204 4.004.356l.106.014c1.47.196 2.601.347 3.443.594.456.152.861.304 1.216.507.254.152.507.355.71.608.203.254.355.558.507.913.152.355.253.76.304 1.267.152 1.115.203 2.737.203 4.207l-.01.296c-.048 1.351-.102 2.873-.244 3.912zM28.64 11.81l1.369 1.622a.943.943 0 0 1 .203.558.962.962 0 0 1-.964.963c-.304 0-.557-.152-.76-.355l-2.332-2.788v2.23a.962.962 0 1 1-1.926 0v-7.3a.962.962 0 1 1 1.926 0v5.02l2.332-2.789c.203-.202.456-.355.76-.355.558 0 .963.457.963.964 0 .253-.05.456-.202.608L28.64 11.81zM22 5.829a.962.962 0 0 0-.963.964v7.299a.962.962 0 1 0 1.926 0v-7.3A.962.962 0 0 0 22 5.83zm-9.175 4.36c.405 0 .71-.304.71-.71a.693.693 0 0 0-.71-.71h-1.42V7.604a.693.693 0 0 0-.71-.71.723.723 0 0 0-.608.304L8.82 9.074a.576.576 0 0 0-.152.405c0 .406.304.71.71.71h.101v2.838c0 .558.203 1.014.608 1.42.355.355.862.608 1.42.608.557 0 1.166-.152 1.673-.456.202-.152.354-.355.354-.608a.693.693 0 0 0-.71-.71.575.575 0 0 0-.405.152c-.101.101-.253.101-.355.101a.616.616 0 0 1-.608-.608V10.24h1.369v-.05zm7.096 3.548a.381.381 0 0 1-.253-.355v-2.18c0-.963-.253-1.672-.76-2.078-.406-.304-.963-.456-1.775-.456-.861 0-1.419.152-1.723.304-.254.102-.456.254-.558.406-.152.152-.202.355-.202.608 0 .507.405.862.861.862.203 0 .406-.05.558-.203.11-.073.166-.172.228-.279.023-.041.048-.084.076-.127.022-.044.035-.088.046-.129.014-.051.027-.095.055-.124.102-.203.355-.355.609-.355.405 0 .71.304.71.71v.558c-.051 0-.508.152-1.065.354-.152.061-.318.122-.484.183-.386.142-.773.284-.986.426a1.644 1.644 0 0 0-.862 1.47c0 .912.76 1.672 1.673 1.672.659 0 1.267-.253 1.723-.71.102.153.203.305.355.406.152.102.355.152.558.152h.963a.616.616 0 0 0 .608-.608c-.05-.203-.152-.405-.355-.507zm-2.129-.405a1.777 1.777 0 0 1-.71.304.374.374 0 0 0-.126.025.375.375 0 0 1-.127.025.856.856 0 0 1-.507-.152c-.101-.101-.152-.253-.152-.456 0-.253.102-.456.304-.608.203-.152.66-.355 1.268-.608v1.47h.05zM5.931 9.58c0-.558.456-.964.963-.964.507 0 .963.457.963.964v4.46c0 .558-.406.963-.963.963a.962.962 0 0 1-.963-.963v-4.46zm25.396 0c0-.558.456-.964.963-.964.507 0 .912.457.963.964v4.46a.962.962 0 1 1-1.926 0v-4.46zM6.894 7.705a.962.962 0 1 0 0-1.926.962.962 0 1 0 0 1.926zm26.359-.963a.962.962 0 0 1-.963.963c-.558 0-.963-.405-.963-.963a.962.962 0 1 1 1.926 0z" fill="#FF4338"/></svg>